<svg width="633" height="230" viewBox="0 0 633 230" fill="none" xmlns="http://www.w3.org/2000/svg">
<path fill-rule="evenodd" clip-rule="evenodd" d="M594.198 17.8661C600.444 17.7387 606.504 18.5887 612.223 21.1625C620.707 25.0224 627.327 32.0704 630.633 40.7738C633.909 49.6221 633.543 59.4049 629.615 67.9856C624.638 78.7558 614.531 86.274 602.77 87.954C597.029 88.8047 588.296 88.5543 582.243 88.5423L548.156 88.4758C545.245 88.471 532.839 88.1284 530.819 88.7808C517.124 93.2145 500.802 101.147 487.414 106.156C481.64 106.346 475.569 105.512 470.227 103.258C461.494 99.5441 454.622 92.4926 451.145 83.6811C447.776 75.1814 448.109 65.0861 451.715 56.7152C456.597 45.5373 466.968 37.7107 479.076 36.0676C484.412 35.3044 493.32 35.5469 498.955 35.552L533.053 35.6232C538.027 35.6327 545.974 35.8326 550.662 35.315C553.138 35.0418 562.609 30.8875 565.52 29.6817C575.053 25.679 584.613 21.7406 594.198 17.8661ZM603.801 36.647C602.009 35.9642 598.879 35.2786 596.999 35.7085L568.895 47.3619C566.529 48.3407 556.67 52.5842 554.79 52.8217C549.502 53.4889 540.378 53.1992 534.765 53.1876L496.132 53.1413C490.903 53.1395 482.532 52.7062 477.807 54.3782C473.269 56.0187 469.634 59.4879 467.784 63.9372C463.86 73.2699 468.314 83.7255 477.763 87.3891C479.504 88.0639 482.536 88.7041 484.379 88.4004L511.733 77.1019C514.841 75.8136 524.876 71.4258 527.356 71.151C532.366 70.5952 541.08 70.8249 546.496 70.8376L585.033 70.9151C590.442 70.9187 598.791 71.3545 603.636 69.726C608.219 68.1526 611.912 64.7046 613.788 60.247C617.792 50.8936 613.36 40.292 603.801 36.647Z" fill="#0E0E0E"/>
<path fill-rule="evenodd" clip-rule="evenodd" d="M322.913 124.033C327.038 123.698 333.36 123.946 337.646 123.904C350.61 123.777 361.395 123.328 371.978 131.979C379.241 137.946 383.805 146.567 384.65 155.916C385.18 161.343 384.949 167.648 384.986 173.092C385.077 186.078 385.684 197.795 376.692 208.325C369.038 217.287 360.857 219.993 349.59 221.057L340.7 229.892L323.64 229.925C311.335 229.934 301.871 230.01 291.905 221.931C278.235 210.851 278.498 196.972 278.724 180.939C278.908 167.84 277.744 156.532 286.862 145.708C294.623 136.494 302.586 133.895 314.154 132.713C317.072 129.914 320.031 126.891 322.913 124.033ZM300.399 194.543C301.066 200.231 302.382 204.624 307.184 208.363C309.364 210.048 311.898 211.212 314.6 211.764C319.373 212.787 338.952 212.317 344.774 212.291C347.506 209.574 350.892 206.001 353.683 203.472C355.328 203.252 357.266 203.043 358.857 202.691C363.432 200.811 366.329 198.931 369.031 194.543L300.399 194.543ZM353.2 142.027C348.585 141.027 328.727 141.531 322.96 141.534L314.235 150.219C308.515 150.941 304.079 152.265 300.32 157.079C299.768 157.784 299.236 158.503 298.723 159.235L343.688 159.259C351.474 159.254 359.698 159.388 367.447 159.227C366.672 153.53 365.384 149.112 360.521 145.371C358.363 143.721 355.862 142.578 353.2 142.027Z" fill="#0E0E0E"/>
<path d="M112.167 0.475938C116.617 -0.0726113 128.807 0.222283 133.711 0.224108L176.77 0.256587L185.529 8.99871L185.531 17.8105L137.775 17.789C129.883 17.7879 121.484 17.4372 113.67 18.0098C101.222 18.9215 96.2671 28.8808 97.5207 40.0897C101.34 37.9656 105.524 36.5758 109.857 35.9926C115.436 35.2207 126.976 35.5627 133.198 35.563L176.758 35.5842L185.527 44.3449L185.531 53.1659C180.917 53.2228 166.206 52.3345 162.327 53.3265C150.289 56.405 134.029 65.1997 122.068 69.3559C113.365 72.3804 106.077 70.2862 98.5699 66.9011C98.0495 66.6325 98.345 66.7026 97.6147 66.9278C97.2106 68.0793 97.1806 68.9296 97.155 70.141C97.045 75.0684 98.9316 79.8313 102.387 83.3522C110.295 91.3607 116.372 88.0179 124.925 84.466L145.951 75.7305C150.177 73.9721 156.315 70.8706 160.798 70.8187C166.053 70.7578 171.439 70.845 176.703 70.8808L185.526 79.7145L185.53 88.4909C181.26 88.5738 165.295 87.7081 162.01 88.6807C149.109 92.5009 133.371 100.718 120.455 105.242C113.84 107.559 104.752 105.193 99.068 102.332C90.5992 98.0958 84.1896 90.6428 81.2783 81.6463C77.9453 71.3965 79.4348 62.4982 84.2243 53.14C81.6392 48.4224 80.0828 44.0541 79.6348 38.6419C78.899 29.2553 81.8883 19.9555 87.9577 12.7473C94.1914 5.40047 102.604 1.26062 112.167 0.475938Z" fill="#0E0E0E"/>
<path fill-rule="evenodd" clip-rule="evenodd" d="M8.48028 0.305968C14.2779 -0.0360022 29.3361 0.0458173 34.402 1.25855C43.6362 3.43669 51.6045 9.23103 56.5121 17.3355C61.9525 26.3564 62.668 35.8679 60.1794 45.9136C60.9788 46.7658 61.8212 47.6747 62.5661 48.5744C68.4351 55.7014 71.2116 64.8712 70.2795 74.0493C69.3291 84.3104 64.5935 92.2182 56.7351 98.6985C47.5072 106.458 36.2649 106.208 25.1053 106.2L8.61314 106.175L0 97.5849L0.0140669 8.77476L8.48028 0.305968ZM38.4986 53.6117C34.9675 52.938 19.5613 52.9976 15.5283 53.3253C6.35602 56.6837 8.74547 64.3043 8.4782 72.2653C8.39555 74.7168 8.55536 77.2375 8.53707 79.7061L17.4326 88.5948C25.1558 88.6328 37.4401 89.5854 43.8618 86.2547C48.3448 83.2816 51.2881 79.9216 52.4353 74.4744C53.4172 69.7949 52.4734 64.9184 49.8163 60.9403C47.1752 57.0877 43.1002 54.4485 38.4986 53.6117ZM17.3768 26.7148L17.3841 35.5703C23.5673 35.583 30.0625 35.4912 36.2182 35.6222C39.4239 35.7576 40.9464 36.0232 44.1103 36.6429C43.4111 25.4406 37.7795 18.8249 26.3146 17.7804L17.3768 26.7148Z" fill="#0E0E0E"/>
<path fill-rule="evenodd" clip-rule="evenodd" d="M581.753 123.89C605.458 122.604 622.134 134.636 624.079 159.158L632.987 168.097C632.973 176.23 633.028 184.424 632.98 192.559C632.903 206.07 628.504 214.773 618.173 223.243C611.92 227.387 605.421 229.702 597.855 229.766C588.442 229.826 579.394 226.151 572.699 219.55C568.245 215.119 565.07 209.571 563.509 203.491C561.556 195.944 562.185 181.526 562.185 173.221L562.192 132.728L570.896 124.038C574.498 123.767 578.232 124.081 581.753 123.89ZM579.804 150.452L579.797 179.343C579.793 184.329 579.475 194.237 580.466 198.689C581.16 201.877 582.77 204.794 585.099 207.084C588.486 210.427 593.082 212.258 597.84 212.162C600.517 212.125 602.331 211.664 604.792 210.716C614.662 205.534 615.514 198.597 615.401 188.45C615.327 181.751 615.298 174.798 615.328 168.089L606.544 159.295C605.417 149.058 599.548 141.935 588.742 141.506L579.804 150.452Z" fill="#0E0E0E"/>
<path fill-rule="evenodd" clip-rule="evenodd" d="M164.011 123.952C195.998 123.424 229.474 123.931 261.584 123.932L270.369 132.702L270.375 154.362C258.712 158.91 246.582 164.193 234.911 168.921L234.927 209.315C234.93 214.555 235.237 225.085 234.791 229.897H217.329L217.316 176.213L172.845 194.505L164.006 185.68L164.001 179.124L181.778 171.821L181.764 141.542L163.999 141.532L164.011 123.952ZM199.5 164.56L206.506 161.672L209.646 160.235C208.015 158.603 200.957 151.333 199.509 150.516L199.5 164.56ZM215.923 141.541C219.35 145.049 222.808 148.528 226.295 151.976L231.707 146.526C233.233 144.983 235.181 143.11 236.615 141.536L215.923 141.541Z" fill="#0E0E0E"/>
<path fill-rule="evenodd" clip-rule="evenodd" d="M345.008 0.265499C355.749 0.0541819 367.155 0.24835 377.939 0.24835L442.639 0.249909L451.412 9.04039L451.415 30.6364L415.975 45.2079L415.961 106.177L398.342 106.17L398.353 52.4897L353.851 70.7879L345.001 61.9506L344.997 55.4234L362.828 48.0932L362.788 17.8288L345.005 17.8148L345.008 0.265499ZM380.408 40.8337L387.44 37.925C388.402 37.4885 389.602 36.9877 390.516 36.5C388.863 34.8264 381.82 27.6032 380.43 26.7627L380.408 40.8337ZM407.159 28.2563L417.574 17.8205L396.718 17.8168L407.159 28.2563Z" fill="#0E0E0E"/>
<path d="M88.4148 124.014C91.4457 123.809 95.9255 123.925 99.0658 123.91L132.791 205.056C133.313 181.702 132.811 156.367 132.812 132.849L141.602 124.073L150.44 124.074L150.43 221.217L141.644 229.991L123.923 229.893C117.733 215.574 112.052 200.709 105.892 186.358C103.269 180.247 100.256 171.907 97.3086 166.108L97.3192 229.993L79.6385 229.993C79.1437 198.063 79.6242 164.822 79.6213 132.783L88.4148 124.014Z" fill="#0E0E0E"/>
<path d="M407.239 123.736L417.782 123.716C419.256 127.869 422.086 134.144 423.856 138.405L445.487 190.544C447.25 194.788 449.422 200.503 451.481 204.433C451.232 180.684 451.466 156.512 451.47 132.729L460.302 123.977L469.108 123.922L469.115 195.505C469.115 199.155 469.484 219.382 468.822 221.377L460.276 229.897L442.631 229.769L415.939 165.503C416.202 186.786 415.968 208.572 415.972 229.894L398.345 229.891L398.349 132.604C401.238 129.638 404.299 126.666 407.239 123.736Z" fill="#0E0E0E"/>
<path d="M203.37 0.0456212L213.878 0C225.034 26.8778 236.137 54.4699 247.657 81.1404L247.655 8.96402L256.387 0.279564L265.247 0.249279C265.248 9.11147 265.581 96.3987 264.912 97.6871L256.375 106.176L238.772 106.089L221.422 64.1916C219.005 58.3554 214.922 47.5935 212.133 42.2879L212.155 106.178L194.45 106.17L194.456 8.87862C197.384 5.89024 200.355 2.94567 203.37 0.0456212Z" fill="#0E0E0E"/>
<path fill-rule="evenodd" clip-rule="evenodd" d="M9.05911 124.018C14.8309 123.616 24.7316 123.901 30.8295 123.9C34.4686 133.833 40.0913 146.348 44.2135 156.302L71.0855 221.251L62.302 229.991L55.6223 229.988L52.4093 222.249L48.3439 212.369L17.976 212.373L17.9885 230L0.301658 229.991L0.315725 132.74L9.05911 124.018ZM18.0755 140.002C17.5284 156.947 17.8785 177.619 17.9875 194.779L41.0218 194.788C38.8292 189.48 19.184 141.138 18.0755 140.002Z" fill="#0E0E0E"/>
<path d="M300.735 0.263525L318.393 0.249658L318.371 62.0073L344.965 88.5351V106.179L337.702 106.174L314.356 82.9073L309.565 78.1561L281.465 106.176L274.162 106.167L274.163 88.5898L300.758 62.0387L300.735 0.263525Z" fill="#0E0E0E"/>
<path d="M509.071 123.939L526.72 123.926L526.705 185.765L553.276 212.287L553.258 229.896L545.984 229.892L522.207 206.179L517.837 201.846L489.722 229.899L482.474 229.886V212.256C491.181 203.363 500.28 194.473 509.1 185.663L509.071 123.939Z" fill="#0E0E0E"/>
</svg>
